<?xml version="1.0" standalone="no"?>
<!DOCTYPE svg PUBLIC "-//W3C//DTD SVG 20010904//EN"
 "http://www.w3.org/TR/2001/REC-SVG-20010904/DTD/svg10.dtd">
<svg version="1.0" xmlns="http://www.w3.org/2000/svg"
 width="1280.000000pt" height="992.000000pt" viewBox="0 0 1280.000000 992.000000"
 preserveAspectRatio="xMidYMid meet">
<metadata>
Created by potrace 1.15, written by Peter Selinger 2001-2017
</metadata>
<g transform="translate(0.000000,992.000000) scale(0.100000,-0.100000)"
fill="#000000" stroke="none">
<path d="M4800 5293 l0 -4568 1023 -324 c562 -178 1028 -326 1034 -329 10 -3
13 799 16 3899 2 3755 3 3907 21 3974 61 234 189 340 361 300 239 -55 376
-238 415 -555 6 -55 10 -642 10 -1686 l0 -1601 93 -43 c127 -59 360 -134 492
-160 521 -100 941 16 1255 346 236 249 384 602 447 1069 25 183 25 761 0 985
-49 433 -132 741 -280 1035 -279 556 -790 958 -1657 1305 -557 222 -1876 618
-2680 804 -231 54 -522 116 -540 116 -7 0 -10 -1668 -10 -4567z"/>
<path d="M2806 3780 c-862 -307 -1605 -573 -1650 -591 -410 -163 -772 -360
-925 -503 -107 -101 -171 -236 -171 -360 1 -145 56 -262 185 -392 156 -159
358 -271 674 -374 600 -197 1070 -296 1676 -352 188 -17 883 -17 1070 0 238
22 666 80 728 98 16 5 17 40 17 545 0 296 -4 539 -8 539 -4 0 -251 -88 -547
-196 -703 -255 -807 -281 -1177 -291 -275 -8 -445 15 -588 79 -153 68 -177
155 -70 251 26 23 76 58 111 77 35 19 561 212 1169 430 l1105 395 3 603 c2
569 1 602 -15 601 -10 0 -724 -252 -1587 -559z"/>
<path d="M9180 3813 c-220 -13 -597 -64 -889 -119 -317 -59 -770 -177 -973
-251 l-68 -25 0 -624 c0 -343 2 -624 5 -624 2 0 522 182 1155 405 633 223
1196 416 1251 430 206 50 306 60 579 60 223 -1 267 -3 353 -22 165 -36 287
-107 302 -174 15 -67 -62 -151 -198 -217 -72 -36 -809 -301 -2864 -1030 l-583
-207 0 -604 c0 -570 1 -603 18 -598 9 2 715 255 1567 562 853 306 1876 674
2275 817 398 143 781 286 851 318 139 63 303 155 419 234 96 65 267 236 302
302 171 321 -42 651 -572 884 -90 39 -175 70 -485 177 -465 159 -1016 263
-1605 303 -132 9 -708 11 -840 3z"/>
<path d="M11808 1037 c-202 -70 -328 -248 -328 -462 0 -159 69 -295 197 -391
93 -70 157 -89 293 -88 137 0 196 19 293 92 199 152 248 443 109 658 -50 77
-109 128 -202 173 -70 34 -82 36 -185 39 -94 2 -120 -1 -177 -21z m322 -103
c83 -39 154 -110 194 -194 28 -59 31 -74 31 -165 0 -93 -2 -105 -33 -167 -87
-177 -285 -266 -469 -209 -275 84 -373 426 -181 636 91 100 176 136 308 132
70 -2 97 -8 150 -33z"/>
<path d="M11760 586 l0 -276 50 0 50 0 0 110 0 110 93 0 c50 0 98 -4 106 -9
15 -10 30 -76 31 -138 0 -68 5 -73 71 -73 64 0 72 10 45 53 -7 12 -16 58 -19
101 -4 60 -10 84 -25 99 -19 19 -19 20 -1 38 23 23 42 94 34 128 -13 56 -29
82 -64 103 -33 21 -50 23 -203 26 l-168 4 0 -276z m287 173 c34 -13 43 -25 43
-65 0 -52 -26 -66 -135 -72 l-95 -5 0 77 0 76 79 0 c44 0 92 -5 108 -11z"/>
</g>
</svg>
